[img]http://img11.imageshack.us/img11/5650/90708056.jpg[/img]

Nick Fury of S.H.I.E.L.D. brings together a team of super humans to form The Avengers to help save the Earth from Loki and his army, While also helping Dragon Exclusive get LiNe for this awesome movie

Source -   Video  -     Chinese HDCAM  Thanks
Source -   Audio  -     Dragon Exclusive , awesome work Bro ;)

Complete name                            : The.Avengers.2012.TS.XviD.AC3-ADTRG.avi
Format                                   : AVI
File size                                : 1.90 GiB
Duration                                 : 2h 15mn
Overall bit rate                         : 1 999 Kbps
Writing library                          : VirtualDub build 34703/release

Video
ID                                       : 0
Format                                   : MPEG-4 Visual
Codec ID                                 : XVID
Bit rate                                 : 1 798 Kbps
Width                                    : 720 pixels
Height                                   : 320 pixels
Display aspect ratio                     : 2.25:1
Frame rate                               : 23.976 fps
Stream size                              : 1.71 GiB (90%)

Audio
ID                                       : 1
Format                                   : AC-3
Bit rate                                 : 192 Kbps
Channel(s)                               : 2 channels
Channel positions                        : Front: L R
Stream size                              : 186 MiB (10%)



Encoder - LiMeY
first off, replaced annoying Marvel intro with clean un logo'd scene. Then blurred and subbed the Black window scene.Ran our magical filters lol, Started Syncing, 18hrs later.. went to bed and got some boom boom, thanks GF, got up, finished syncing. had a cuppa tea with my eggs on toast (over easy)
then checked file, looks and sounds great to me.( some very minor +/- 100ms of in one maybe two places, no biggie) Dont like , grab cam ;) .

So many new releases coming, So hot diggerty dog... lets get to work ;). 

Oh  Enjoy ;)

[img]http://imgcrave.com/u/Hmc8S.png[/img]
[img]http://imgcrave.com/u/sb93p.png[/img]
[img]http://imgcrave.com/u/kAcYV.png[/img]
[img]http://imgcrave.com/u/eNDSt.png[/img]